<svg width="95" height="20" viewBox="0 0 95 20" fill="none" xmlns="http://www.w3.org/2000/svg">
<g id="logo_type2">
<path id="Vector" d="M88.6389 6.05365H95L94.7582 7.21473H91.6759L91.0413 10.1633H93.625L93.3833 11.3091H90.7996L90.1045 14.5784H93.1868L92.9602 15.7548H86.5991L88.6389 6.05365Z" fill="#F9512D"/>
<path id="Vector_2" d="M81.217 6.05365H87.578L87.3363 7.21473H84.2389L83.6496 10.0105H86.2333L85.9916 11.1868H83.4078L82.4408 15.7548H79.1772L81.217 6.05365Z" fill="#F9512D"/>
<path id="Vector_3" d="M78.4585 15.7548H74.9229L74.7114 13.3257H71.9161L70.8433 15.7548H69.3777L73.835 6.05365H77.416L78.4585 15.7548ZM72.4147 12.2104H74.6056L74.2581 8.05498L72.4147 12.2104Z" fill="#F9512D"/>
<path id="Vector_4" d="M67.1731 8.86469C67.2033 8.71191 67.2184 8.50312 67.2184 8.23831C67.2184 8.08554 67.2083 7.93786 67.1882 7.79527C67.168 7.6425 67.1328 7.51009 67.0824 7.39806C67.032 7.27584 66.9565 7.18418 66.8558 7.12307C66.755 7.05177 66.6241 7.01613 66.4629 7.01613C66.2816 7.01613 66.1154 7.05687 65.9643 7.13835C65.8132 7.21982 65.6772 7.32677 65.5563 7.45917C65.4455 7.58139 65.3549 7.72907 65.2844 7.90221C65.2239 8.06517 65.1937 8.23831 65.1937 8.42164C65.1937 8.68645 65.2592 8.89015 65.3901 9.03274C65.5312 9.17533 65.7125 9.29245 65.9341 9.38412C66.1557 9.47578 66.4075 9.55217 66.6896 9.61328C66.9716 9.67439 67.2637 9.74568 67.5659 9.82716C67.8177 9.89845 68.0696 9.99012 68.3214 10.1022C68.5732 10.2142 68.7948 10.367 68.9862 10.5605C69.1877 10.7438 69.3488 10.9882 69.4697 11.2938C69.5906 11.5891 69.651 11.9609 69.651 12.409C69.651 13.0507 69.5251 13.5905 69.2733 14.0284C69.0214 14.4664 68.6739 14.8229 68.2307 15.0978C67.7875 15.3728 67.2587 15.5714 66.6442 15.6937C66.0398 15.8159 65.3801 15.877 64.6649 15.877C63.9396 15.877 63.3453 15.8312 62.882 15.7395C62.4287 15.6376 62.0711 15.5307 61.8092 15.4187C61.4969 15.2863 61.2652 15.1335 61.1142 14.9604L61.6279 12.8674H64.2871C64.2771 12.959 64.267 13.0863 64.2569 13.2493C64.2469 13.4021 64.2418 13.5243 64.2418 13.6159C64.2418 13.7382 64.2569 13.8655 64.2871 13.9979C64.3174 14.1303 64.3627 14.2525 64.4231 14.3645C64.4936 14.4766 64.5893 14.5682 64.7102 14.6395C64.8311 14.7108 64.9822 14.7465 65.1635 14.7465C65.365 14.7465 65.5412 14.7006 65.6923 14.609C65.8535 14.5173 65.9844 14.4053 66.0852 14.2729C66.196 14.1303 66.2766 13.9775 66.3269 13.8146C66.3874 13.6414 66.4176 13.4734 66.4176 13.3104C66.4176 13.0863 66.3622 12.8979 66.2514 12.7451C66.1506 12.5924 66.0096 12.4651 65.8283 12.3632C65.647 12.2512 65.4355 12.1595 65.1937 12.0882C64.962 12.0067 64.7203 11.9252 64.4685 11.8438C64.2267 11.7725 63.9698 11.6859 63.6979 11.5841C63.436 11.4822 63.1942 11.3396 62.9726 11.1563C62.751 10.973 62.5647 10.7438 62.4136 10.4688C62.2725 10.1836 62.202 9.82207 62.202 9.38412C62.202 8.73228 62.3632 8.18739 62.6855 7.74944C63.018 7.3013 63.4309 6.93974 63.9245 6.66475C64.4282 6.38975 64.9771 6.19624 65.5715 6.08421C66.1658 5.96199 66.7298 5.90088 67.2637 5.90088C67.9688 5.90088 68.5732 5.98745 69.0768 6.16059C69.5906 6.32355 69.9784 6.51707 70.2403 6.74113L69.6812 8.86469H67.1731Z" fill="#F9512D"/>
<path id="Vector_5" d="M56.5282 10.2702L60.2602 6.03839H61.9676L58.5831 9.75079L60.8797 15.7548H57.5859L56.2562 11.4924L55.3648 15.7548H52.1011L54.1409 6.05367H57.4197L56.5282 10.2702Z" fill="#282E34"/>
<path id="Vector_6" d="M50.9729 14.9298C50.721 15.052 50.4592 15.1742 50.1872 15.2965C49.9253 15.4085 49.6432 15.5103 49.3411 15.602C49.0389 15.6835 48.7065 15.7497 48.3438 15.8006C47.9913 15.8515 47.6035 15.877 47.1804 15.877C45.8306 15.877 44.7881 15.5714 44.0527 14.9604C43.3275 14.3493 42.9649 13.3308 42.9649 11.9049C42.9649 11.0799 43.0908 10.3058 43.3426 9.58272C43.5944 8.84941 43.9671 8.21285 44.4607 7.67305C44.9543 7.12307 45.5637 6.69021 46.2889 6.37448C47.0142 6.05875 47.8452 5.90088 48.782 5.90088C49.2252 5.90088 49.6281 5.93143 49.9908 5.99254C50.3635 6.05365 50.6959 6.13513 50.988 6.23698C51.2902 6.32865 51.5571 6.43049 51.7888 6.54253C52.0305 6.65456 52.2471 6.7615 52.4385 6.86335L51.8946 9.70494H49.1748C49.1849 9.60309 49.195 9.47069 49.2051 9.30773C49.2252 9.14477 49.2403 8.98181 49.2504 8.81885C49.2605 8.64571 49.2705 8.47766 49.2806 8.3147C49.2907 8.15174 49.2957 8.01425 49.2957 7.90221C49.2957 7.82073 49.2907 7.72907 49.2806 7.62722C49.2705 7.51519 49.2454 7.40824 49.2051 7.3064C49.1648 7.20455 49.0993 7.12307 49.0086 7.06196C48.9281 6.99066 48.8173 6.95502 48.6762 6.95502C48.4143 6.95502 48.1726 7.06705 47.951 7.29112C47.7394 7.505 47.5481 7.79527 47.3768 8.16193C47.2056 8.5184 47.0545 8.9258 46.9235 9.38412C46.7926 9.84244 46.6818 10.3109 46.5911 10.7896C46.5105 11.2581 46.4451 11.7216 46.3947 12.1799C46.3544 12.6382 46.3343 13.0405 46.3343 13.3868C46.3343 13.4886 46.3393 13.6159 46.3494 13.7687C46.3594 13.9215 46.3897 14.0692 46.44 14.2118C46.4904 14.3543 46.5659 14.4766 46.6667 14.5784C46.7775 14.6803 46.9235 14.7312 47.1048 14.7312C47.4171 14.7312 47.7193 14.5377 48.0114 14.1507C48.3035 13.7534 48.5604 13.0507 48.782 12.0424H51.5773L50.9729 14.9298Z" fill="#282E34"/>
<path id="Vector_7" d="M40.7865 15.7548H37.5228L39.5626 6.05365H42.8414L40.7865 15.7548Z" fill="#282E34"/>
<path id="Vector_8" d="M32.7573 10.2702L36.4894 6.03839H38.1967L34.8122 9.75079L37.1089 15.7548H33.815L32.4854 11.4924L31.5939 15.7548H28.3303L30.37 6.05367H33.6488L32.7573 10.2702Z" fill="#282E34"/>
<path id="Rectangle 7" d="M2.67029e-05 12.0808L10.2697 16.9293L20.5395 12.0808V15.1515L10.2697 20L2.67029e-05 15.1515V12.0808Z" fill="#282E34"/>
<path id="Intersect" fill-rule="evenodd" clip-rule="evenodd" d="M7.67232 14.8141V0.60606L10.2697 0L12.8671 0.60606V14.8141L10.2697 16.0404L7.67232 14.8141Z" fill="#F9512D"/>
<path id="Vector 1" d="M1.03901 11.7172L6.99305 14.505V2.34344L1.03901 6.70708V11.7172Z" fill="#282E34"/>
<path id="Vector 2" d="M19.5405 11.7172L13.5864 14.505V2.34344L19.5405 6.70708V11.7172Z" fill="#282E34"/>
</g>
</svg>
