<svg width="67" height="11" viewBox="0 0 67 11" fill="none" xmlns="http://www.w3.org/2000/svg">
<path id="Union" fill-rule="evenodd" clip-rule="evenodd" d="M22.1872 10.2965C22.4592 10.1742 22.7211 10.052 22.9729 9.9298L23.5773 7.04238H20.782C20.5604 8.05068 20.3035 8.75344 20.0114 9.15065C19.7193 9.53768 19.4171 9.73119 19.1049 9.73119C18.9235 9.73119 18.7775 9.68027 18.6667 9.57842C18.566 9.47657 18.4904 9.35435 18.44 9.21176C18.3897 9.06917 18.3595 8.92149 18.3494 8.76872C18.3393 8.61595 18.3343 8.48864 18.3343 8.38679C18.3343 8.0405 18.3544 7.63819 18.3947 7.17987C18.4451 6.72155 18.5106 6.25814 18.5911 5.78963C18.6818 5.31094 18.7926 4.84244 18.9235 4.38412C19.0545 3.9258 19.2056 3.5184 19.3768 3.16193C19.5481 2.79527 19.7395 2.505 19.951 2.29112C20.1726 2.06705 20.4143 1.95502 20.6762 1.95502C20.8173 1.95502 20.9281 1.99067 21.0087 2.06196C21.0993 2.12307 21.1648 2.20455 21.2051 2.3064C21.2454 2.40825 21.2705 2.51519 21.2806 2.62722C21.2907 2.72907 21.2957 2.82074 21.2957 2.90221C21.2957 3.01425 21.2907 3.15174 21.2806 3.3147C21.2705 3.47766 21.2605 3.64571 21.2504 3.81886C21.2403 3.98181 21.2252 4.14477 21.2051 4.30773C21.195 4.47069 21.1849 4.60309 21.1749 4.70494H23.8946L24.4385 1.86335C24.2471 1.76151 24.0305 1.65456 23.7888 1.54253C23.5571 1.4305 23.2902 1.32865 22.988 1.23698C22.6959 1.13513 22.3635 1.05365 21.9908 0.992544C21.6281 0.931435 21.2252 0.900879 20.782 0.900879C19.8452 0.900879 19.0142 1.05875 18.2889 1.37448C17.5637 1.69021 16.9543 2.12307 16.4607 2.67305C15.9671 3.21285 15.5944 3.84941 15.3426 4.58272C15.0908 5.30585 14.9649 6.07991 14.9649 6.90488C14.9649 8.33077 15.3275 9.34926 16.0527 9.96035C16.7881 10.5714 17.8306 10.877 19.1804 10.877C19.6035 10.877 19.9913 10.8515 20.3438 10.8006C20.7065 10.7497 21.0389 10.6835 21.3411 10.602C21.6433 10.5103 21.9253 10.4085 22.1872 10.2965ZM39.2184 3.23832C39.2184 3.50312 39.2033 3.71191 39.1731 3.86469H41.6812L42.2403 1.74114C41.9784 1.51707 41.5906 1.32355 41.0769 1.1606C40.5732 0.987452 39.9688 0.900879 39.2637 0.900879C38.7299 0.900879 38.1658 0.96199 37.5715 1.08421C36.9772 1.19624 36.4282 1.38976 35.9245 1.66475C35.4309 1.93974 35.018 2.3013 34.6856 2.74944C34.3632 3.18739 34.202 3.73228 34.202 4.38412C34.202 4.82207 34.2726 5.18363 34.4136 5.46881C34.5647 5.7438 34.751 5.97296 34.9726 6.15629C35.1942 6.33962 35.436 6.48221 35.6979 6.58406C35.9699 6.68591 36.2267 6.77248 36.4685 6.84377C36.7203 6.92525 36.962 7.00673 37.1937 7.08821C37.4355 7.1595 37.647 7.25117 37.8283 7.3632C38.0096 7.46505 38.1507 7.59236 38.2514 7.74514C38.3622 7.89791 38.4176 8.08633 38.4176 8.3104C38.4176 8.47336 38.3874 8.64141 38.3269 8.81455C38.2766 8.97751 38.196 9.13028 38.0852 9.27287C37.9845 9.40528 37.8535 9.51731 37.6923 9.60897C37.5412 9.70064 37.365 9.74647 37.1635 9.74647C36.9822 9.74647 36.8311 9.71082 36.7102 9.63953C36.5893 9.56823 36.4937 9.47657 36.4231 9.36454C36.3627 9.2525 36.3174 9.13028 36.2872 8.99788C36.2569 8.86548 36.2418 8.73816 36.2418 8.61595C36.2418 8.52428 36.2469 8.40206 36.2569 8.24929C36.267 8.08633 36.2771 7.95902 36.2872 7.86736H33.6279L33.1142 9.96035C33.2653 10.1335 33.4969 10.2863 33.8092 10.4187C34.0711 10.5307 34.4287 10.6376 34.882 10.7395C35.3453 10.8312 35.9396 10.877 36.6649 10.877C37.3801 10.877 38.0399 10.8159 38.6442 10.6937C39.2587 10.5714 39.7875 10.3728 40.2307 10.0978C40.6739 9.82286 41.0215 9.46638 41.2733 9.02843C41.5251 8.59048 41.651 8.05068 41.651 7.40903C41.651 6.9609 41.5906 6.58915 41.4697 6.29379C41.3488 5.98824 41.1877 5.7438 40.9862 5.56047C40.7948 5.36696 40.5732 5.21419 40.3214 5.10215C40.0696 4.99012 39.8177 4.89846 39.5659 4.82716C39.2637 4.74568 38.9716 4.67439 38.6896 4.61328C38.4075 4.55217 38.1557 4.47578 37.9341 4.38412C37.7125 4.29245 37.5312 4.17533 37.3901 4.03274C37.2592 3.89015 37.1937 3.68645 37.1937 3.42164C37.1937 3.23832 37.2239 3.06517 37.2844 2.90221C37.3549 2.72907 37.4455 2.58139 37.5563 2.45917C37.6772 2.32677 37.8132 2.21983 37.9643 2.13835C38.1154 2.05687 38.2816 2.01613 38.4629 2.01613C38.6241 2.01613 38.755 2.05177 38.8558 2.12307C38.9565 2.18418 39.032 2.27584 39.0824 2.39806C39.1328 2.5101 39.168 2.6425 39.1882 2.79527C39.2083 2.93786 39.2184 3.08554 39.2184 3.23832ZM50.4585 10.7548H46.9229L46.7114 8.32568H43.9161L42.8434 10.7548H41.3777L45.835 1.05366H49.416L50.4585 10.7548ZM44.4147 7.21043H46.6056L46.2581 3.05499L44.4147 7.21043ZM59.5781 1.05366H53.217L51.1772 10.7548H54.4408L55.4078 6.18685H57.9916L58.2333 5.01049H55.6496L56.2389 2.21474H59.3363L59.5781 1.05366ZM67 1.05366H60.6389L58.5991 10.7548H64.9602L65.1869 9.57842H62.1045L62.7996 6.30907H65.3833L65.625 5.16327H63.0413L63.6759 2.21474H66.7582L67 1.05366ZM28.5282 5.27022L32.2602 1.03839H33.9676L30.5831 4.75079L32.8797 10.7548H29.5859L28.2562 6.4924L27.3648 10.7548H24.1011L26.1409 1.05367H29.4197L28.5282 5.27022ZM12.7865 10.7548H9.52285L11.5626 1.05366H14.8414L12.7865 10.7548ZM8.48938 1.03839L4.75734 5.27022L5.6488 1.05367H2.37005L0.330267 10.7548H3.59391L4.48537 6.4924L5.81501 10.7548H9.10887L6.81223 4.75079L10.1968 1.03839H8.48938Z" fill="#282E34"/>
</svg>
